<mxfile host="app.diagrams.net" modified="2022-12-21T14:00:50.015Z" agent="5.0 (Windows NT 10.0; Win64; x64) AppleWebKit/537.36 (KHTML, like Gecko) Chrome/108.0.0.0 Safari/537.36" version="20.7.4" etag="OEmsP3OOY88bGoBexH1o" type="github">
  <diagram id="4jZTVcMqSxttDpw2G4bO" name="Страница 1">
    <mxGraphModel dx="1000" dy="523" grid="1" gridSize="10" guides="1" tooltips="1" connect="1" arrows="1" fold="1" page="1" pageScale="1" pageWidth="827" pageHeight="1169" math="0" shadow="0">
      <root>
        <mxCell id="0" />
        <mxCell id="1" parent="0" />
        <mxCell id="t3CgLz-BEE2Kia9nm0PY-42" value="" style="edgeStyle=orthogonalEdgeStyle;rounded=0;orthogonalLoop=1;jettySize=auto;html=1;fontColor=#000000;" edge="1" parent="1" source="t3CgLz-BEE2Kia9nm0PY-1" target="t3CgLz-BEE2Kia9nm0PY-5">
          <mxGeometry relative="1" as="geometry" />
        </mxCell>
        <mxCell id="t3CgLz-BEE2Kia9nm0PY-1" value="&lt;font style=&quot;vertical-align: inherit;&quot;&gt;&lt;font style=&quot;vertical-align: inherit;&quot;&gt;Начало&lt;/font&gt;&lt;/font&gt;" style="ellipse;whiteSpace=wrap;html=1;" vertex="1" parent="1">
          <mxGeometry x="354" y="20" width="120" height="80" as="geometry" />
        </mxCell>
        <mxCell id="t3CgLz-BEE2Kia9nm0PY-2" value="string[] text = new string[5]" style="rounded=0;whiteSpace=wrap;html=1;" vertex="1" parent="1">
          <mxGeometry x="354" y="120" width="120" height="60" as="geometry" />
        </mxCell>
        <mxCell id="t3CgLz-BEE2Kia9nm0PY-17" value="" style="edgeStyle=orthogonalEdgeStyle;rounded=0;orthogonalLoop=1;jettySize=auto;html=1;" edge="1" parent="1" source="t3CgLz-BEE2Kia9nm0PY-4" target="t3CgLz-BEE2Kia9nm0PY-16">
          <mxGeometry relative="1" as="geometry" />
        </mxCell>
        <mxCell id="t3CgLz-BEE2Kia9nm0PY-4" value="i &amp;lt; text.Lendth" style="rhombus;whiteSpace=wrap;html=1;" vertex="1" parent="1">
          <mxGeometry x="342" y="310" width="136" height="80" as="geometry" />
        </mxCell>
        <mxCell id="t3CgLz-BEE2Kia9nm0PY-15" value="" style="edgeStyle=orthogonalEdgeStyle;rounded=0;orthogonalLoop=1;jettySize=auto;html=1;" edge="1" parent="1" source="t3CgLz-BEE2Kia9nm0PY-5" target="t3CgLz-BEE2Kia9nm0PY-4">
          <mxGeometry relative="1" as="geometry" />
        </mxCell>
        <mxCell id="t3CgLz-BEE2Kia9nm0PY-5" value="int i = 0" style="rounded=0;whiteSpace=wrap;html=1;" vertex="1" parent="1">
          <mxGeometry x="350" y="210" width="120" height="60" as="geometry" />
        </mxCell>
        <mxCell id="t3CgLz-BEE2Kia9nm0PY-6" value="" style="endArrow=classic;html=1;rounded=0;exitX=0.5;exitY=1;exitDx=0;exitDy=0;entryX=0.5;entryY=0;entryDx=0;entryDy=0;" edge="1" parent="1" source="t3CgLz-BEE2Kia9nm0PY-4">
          <mxGeometry width="50" height="50" relative="1" as="geometry">
            <mxPoint x="390" y="310" as="sourcePoint" />
            <mxPoint x="410" y="440" as="targetPoint" />
            <Array as="points" />
          </mxGeometry>
        </mxCell>
        <mxCell id="t3CgLz-BEE2Kia9nm0PY-12" value="" style="edgeStyle=orthogonalEdgeStyle;rounded=0;orthogonalLoop=1;jettySize=auto;html=1;" edge="1" parent="1" target="t3CgLz-BEE2Kia9nm0PY-8">
          <mxGeometry relative="1" as="geometry">
            <mxPoint x="410" y="500" as="sourcePoint" />
          </mxGeometry>
        </mxCell>
        <mxCell id="t3CgLz-BEE2Kia9nm0PY-13" style="edgeStyle=orthogonalEdgeStyle;rounded=0;orthogonalLoop=1;jettySize=auto;html=1;entryX=0;entryY=0.5;entryDx=0;entryDy=0;" edge="1" parent="1" source="t3CgLz-BEE2Kia9nm0PY-8" target="t3CgLz-BEE2Kia9nm0PY-4">
          <mxGeometry relative="1" as="geometry">
            <Array as="points">
              <mxPoint x="326" y="550" />
              <mxPoint x="326" y="350" />
            </Array>
          </mxGeometry>
        </mxCell>
        <mxCell id="t3CgLz-BEE2Kia9nm0PY-8" value="i++" style="rounded=0;whiteSpace=wrap;html=1;" vertex="1" parent="1">
          <mxGeometry x="350" y="530" width="120" height="60" as="geometry" />
        </mxCell>
        <mxCell id="t3CgLz-BEE2Kia9nm0PY-10" value="да" style="text;html=1;align=center;verticalAlign=middle;resizable=0;points=[];autosize=1;strokeColor=none;fillColor=none;" vertex="1" parent="1">
          <mxGeometry x="414" y="400" width="40" height="30" as="geometry" />
        </mxCell>
        <mxCell id="t3CgLz-BEE2Kia9nm0PY-19" value="" style="edgeStyle=orthogonalEdgeStyle;rounded=0;orthogonalLoop=1;jettySize=auto;html=1;" edge="1" parent="1" source="t3CgLz-BEE2Kia9nm0PY-16" target="t3CgLz-BEE2Kia9nm0PY-18">
          <mxGeometry relative="1" as="geometry" />
        </mxCell>
        <mxCell id="t3CgLz-BEE2Kia9nm0PY-16" value="text" style="shape=document;whiteSpace=wrap;html=1;boundedLbl=1;" vertex="1" parent="1">
          <mxGeometry x="550" y="310" width="74" height="80" as="geometry" />
        </mxCell>
        <mxCell id="t3CgLz-BEE2Kia9nm0PY-38" value="" style="edgeStyle=orthogonalEdgeStyle;rounded=0;orthogonalLoop=1;jettySize=auto;html=1;" edge="1" parent="1" source="t3CgLz-BEE2Kia9nm0PY-18" target="t3CgLz-BEE2Kia9nm0PY-22">
          <mxGeometry relative="1" as="geometry" />
        </mxCell>
        <mxCell id="t3CgLz-BEE2Kia9nm0PY-18" value="int newSize = 0" style="whiteSpace=wrap;html=1;" vertex="1" parent="1">
          <mxGeometry x="697" y="320" width="120" height="60" as="geometry" />
        </mxCell>
        <mxCell id="t3CgLz-BEE2Kia9nm0PY-28" value="" style="edgeStyle=orthogonalEdgeStyle;rounded=0;orthogonalLoop=1;jettySize=auto;html=1;" edge="1" parent="1" source="t3CgLz-BEE2Kia9nm0PY-20" target="t3CgLz-BEE2Kia9nm0PY-27">
          <mxGeometry relative="1" as="geometry" />
        </mxCell>
        <mxCell id="t3CgLz-BEE2Kia9nm0PY-41" value="" style="edgeStyle=orthogonalEdgeStyle;rounded=0;orthogonalLoop=1;jettySize=auto;html=1;fontColor=#000000;" edge="1" parent="1" source="t3CgLz-BEE2Kia9nm0PY-20" target="t3CgLz-BEE2Kia9nm0PY-40">
          <mxGeometry relative="1" as="geometry" />
        </mxCell>
        <mxCell id="t3CgLz-BEE2Kia9nm0PY-20" value="i &amp;lt; text.Lendth" style="rhombus;whiteSpace=wrap;html=1;" vertex="1" parent="1">
          <mxGeometry x="703.5" y="450" width="107" height="80" as="geometry" />
        </mxCell>
        <mxCell id="t3CgLz-BEE2Kia9nm0PY-37" value="" style="edgeStyle=orthogonalEdgeStyle;rounded=0;orthogonalLoop=1;jettySize=auto;html=1;" edge="1" parent="1" source="t3CgLz-BEE2Kia9nm0PY-22" target="t3CgLz-BEE2Kia9nm0PY-20">
          <mxGeometry relative="1" as="geometry" />
        </mxCell>
        <mxCell id="t3CgLz-BEE2Kia9nm0PY-22" value="i = 0" style="rounded=0;whiteSpace=wrap;html=1;" vertex="1" parent="1">
          <mxGeometry x="697" y="400" width="120" height="30" as="geometry" />
        </mxCell>
        <mxCell id="t3CgLz-BEE2Kia9nm0PY-30" value="" style="edgeStyle=orthogonalEdgeStyle;rounded=0;orthogonalLoop=1;jettySize=auto;html=1;" edge="1" parent="1" source="t3CgLz-BEE2Kia9nm0PY-27" target="t3CgLz-BEE2Kia9nm0PY-29">
          <mxGeometry relative="1" as="geometry" />
        </mxCell>
        <mxCell id="t3CgLz-BEE2Kia9nm0PY-35" style="edgeStyle=orthogonalEdgeStyle;rounded=0;orthogonalLoop=1;jettySize=auto;html=1;entryX=1;entryY=0.5;entryDx=0;entryDy=0;" edge="1" parent="1" source="t3CgLz-BEE2Kia9nm0PY-27" target="t3CgLz-BEE2Kia9nm0PY-33">
          <mxGeometry relative="1" as="geometry">
            <Array as="points">
              <mxPoint x="837" y="610" />
              <mxPoint x="837" y="785" />
            </Array>
          </mxGeometry>
        </mxCell>
        <mxCell id="t3CgLz-BEE2Kia9nm0PY-27" value="text[i].Length &amp;lt;= 3" style="rhombus;whiteSpace=wrap;html=1;" vertex="1" parent="1">
          <mxGeometry x="694.25" y="570" width="125.5" height="80" as="geometry" />
        </mxCell>
        <mxCell id="t3CgLz-BEE2Kia9nm0PY-31" style="edgeStyle=orthogonalEdgeStyle;rounded=0;orthogonalLoop=1;jettySize=auto;html=1;entryX=0;entryY=0.5;entryDx=0;entryDy=0;exitX=0;exitY=0.5;exitDx=0;exitDy=0;" edge="1" parent="1" source="t3CgLz-BEE2Kia9nm0PY-33" target="t3CgLz-BEE2Kia9nm0PY-20">
          <mxGeometry relative="1" as="geometry">
            <Array as="points">
              <mxPoint x="674" y="785" />
              <mxPoint x="674" y="490" />
            </Array>
          </mxGeometry>
        </mxCell>
        <mxCell id="t3CgLz-BEE2Kia9nm0PY-34" value="" style="edgeStyle=orthogonalEdgeStyle;rounded=0;orthogonalLoop=1;jettySize=auto;html=1;" edge="1" parent="1" source="t3CgLz-BEE2Kia9nm0PY-29" target="t3CgLz-BEE2Kia9nm0PY-33">
          <mxGeometry relative="1" as="geometry" />
        </mxCell>
        <mxCell id="t3CgLz-BEE2Kia9nm0PY-29" value="newSize++" style="whiteSpace=wrap;html=1;" vertex="1" parent="1">
          <mxGeometry x="697" y="700" width="120" height="40" as="geometry" />
        </mxCell>
        <mxCell id="t3CgLz-BEE2Kia9nm0PY-32" value="да" style="text;html=1;align=center;verticalAlign=middle;resizable=0;points=[];autosize=1;strokeColor=none;fillColor=none;" vertex="1" parent="1">
          <mxGeometry x="750" y="665" width="40" height="30" as="geometry" />
        </mxCell>
        <mxCell id="t3CgLz-BEE2Kia9nm0PY-33" value="i++" style="rounded=0;whiteSpace=wrap;html=1;" vertex="1" parent="1">
          <mxGeometry x="697" y="770" width="120" height="30" as="geometry" />
        </mxCell>
        <mxCell id="t3CgLz-BEE2Kia9nm0PY-36" value="нет" style="text;html=1;align=center;verticalAlign=middle;resizable=0;points=[];autosize=1;strokeColor=none;fillColor=none;" vertex="1" parent="1">
          <mxGeometry x="830" y="655" width="40" height="30" as="geometry" />
        </mxCell>
        <mxCell id="t3CgLz-BEE2Kia9nm0PY-39" value="да" style="text;html=1;align=center;verticalAlign=middle;resizable=0;points=[];autosize=1;strokeColor=none;fillColor=none;fontColor=#000000;" vertex="1" parent="1">
          <mxGeometry x="750" y="535" width="40" height="30" as="geometry" />
        </mxCell>
        <mxCell id="t3CgLz-BEE2Kia9nm0PY-44" value="" style="edgeStyle=orthogonalEdgeStyle;rounded=0;orthogonalLoop=1;jettySize=auto;html=1;fontColor=#000000;" edge="1" parent="1" source="t3CgLz-BEE2Kia9nm0PY-40" target="t3CgLz-BEE2Kia9nm0PY-43">
          <mxGeometry relative="1" as="geometry" />
        </mxCell>
        <mxCell id="t3CgLz-BEE2Kia9nm0PY-40" value="string[] text2 = new string[newSize]" style="whiteSpace=wrap;html=1;" vertex="1" parent="1">
          <mxGeometry x="940" y="460" width="120" height="60" as="geometry" />
        </mxCell>
        <mxCell id="t3CgLz-BEE2Kia9nm0PY-49" value="" style="edgeStyle=orthogonalEdgeStyle;rounded=0;orthogonalLoop=1;jettySize=auto;html=1;fontColor=#000000;" edge="1" parent="1" source="t3CgLz-BEE2Kia9nm0PY-43" target="t3CgLz-BEE2Kia9nm0PY-47">
          <mxGeometry relative="1" as="geometry" />
        </mxCell>
        <mxCell id="t3CgLz-BEE2Kia9nm0PY-43" value="int j = 0" style="whiteSpace=wrap;html=1;" vertex="1" parent="1">
          <mxGeometry x="940" y="555" width="120" height="35" as="geometry" />
        </mxCell>
        <mxCell id="t3CgLz-BEE2Kia9nm0PY-51" value="" style="edgeStyle=orthogonalEdgeStyle;rounded=0;orthogonalLoop=1;jettySize=auto;html=1;fontColor=#000000;" edge="1" parent="1" source="t3CgLz-BEE2Kia9nm0PY-47">
          <mxGeometry relative="1" as="geometry">
            <mxPoint x="1000" y="680" as="targetPoint" />
          </mxGeometry>
        </mxCell>
        <mxCell id="t3CgLz-BEE2Kia9nm0PY-47" value="i = 0" style="rounded=0;whiteSpace=wrap;html=1;fontColor=#000000;" vertex="1" parent="1">
          <mxGeometry x="940" y="620" width="120" height="35" as="geometry" />
        </mxCell>
        <mxCell id="t3CgLz-BEE2Kia9nm0PY-52" value="" style="edgeStyle=orthogonalEdgeStyle;rounded=0;orthogonalLoop=1;jettySize=auto;html=1;" edge="1" parent="1" source="t3CgLz-BEE2Kia9nm0PY-53" target="t3CgLz-BEE2Kia9nm0PY-57">
          <mxGeometry relative="1" as="geometry" />
        </mxCell>
        <mxCell id="t3CgLz-BEE2Kia9nm0PY-69" value="" style="edgeStyle=orthogonalEdgeStyle;rounded=0;orthogonalLoop=1;jettySize=auto;html=1;fontColor=#000000;" edge="1" parent="1" source="t3CgLz-BEE2Kia9nm0PY-53" target="t3CgLz-BEE2Kia9nm0PY-68">
          <mxGeometry relative="1" as="geometry" />
        </mxCell>
        <mxCell id="t3CgLz-BEE2Kia9nm0PY-53" value="i &amp;lt; text.Lendth" style="rhombus;whiteSpace=wrap;html=1;" vertex="1" parent="1">
          <mxGeometry x="946.5" y="680" width="107" height="80" as="geometry" />
        </mxCell>
        <mxCell id="t3CgLz-BEE2Kia9nm0PY-55" value="" style="edgeStyle=orthogonalEdgeStyle;rounded=0;orthogonalLoop=1;jettySize=auto;html=1;" edge="1" parent="1" source="t3CgLz-BEE2Kia9nm0PY-57" target="t3CgLz-BEE2Kia9nm0PY-60">
          <mxGeometry relative="1" as="geometry" />
        </mxCell>
        <mxCell id="t3CgLz-BEE2Kia9nm0PY-56" style="edgeStyle=orthogonalEdgeStyle;rounded=0;orthogonalLoop=1;jettySize=auto;html=1;entryX=1;entryY=0.5;entryDx=0;entryDy=0;" edge="1" parent="1" source="t3CgLz-BEE2Kia9nm0PY-57" target="t3CgLz-BEE2Kia9nm0PY-62">
          <mxGeometry relative="1" as="geometry">
            <Array as="points">
              <mxPoint x="1083" y="835" />
              <mxPoint x="1083" y="1055" />
            </Array>
          </mxGeometry>
        </mxCell>
        <mxCell id="t3CgLz-BEE2Kia9nm0PY-57" value="text[i].Length &amp;lt;= 3" style="rhombus;whiteSpace=wrap;html=1;" vertex="1" parent="1">
          <mxGeometry x="937.5" y="790" width="125.5" height="80" as="geometry" />
        </mxCell>
        <mxCell id="t3CgLz-BEE2Kia9nm0PY-58" style="edgeStyle=orthogonalEdgeStyle;rounded=0;orthogonalLoop=1;jettySize=auto;html=1;entryX=0;entryY=0.5;entryDx=0;entryDy=0;exitX=0;exitY=0.5;exitDx=0;exitDy=0;" edge="1" parent="1" source="t3CgLz-BEE2Kia9nm0PY-62" target="t3CgLz-BEE2Kia9nm0PY-53">
          <mxGeometry relative="1" as="geometry">
            <Array as="points">
              <mxPoint x="920" y="1055" />
              <mxPoint x="920" y="720" />
            </Array>
          </mxGeometry>
        </mxCell>
        <mxCell id="t3CgLz-BEE2Kia9nm0PY-66" value="" style="edgeStyle=orthogonalEdgeStyle;rounded=0;orthogonalLoop=1;jettySize=auto;html=1;fontColor=#000000;" edge="1" parent="1" source="t3CgLz-BEE2Kia9nm0PY-60" target="t3CgLz-BEE2Kia9nm0PY-65">
          <mxGeometry relative="1" as="geometry" />
        </mxCell>
        <mxCell id="t3CgLz-BEE2Kia9nm0PY-60" value="text2[j] = text[i]" style="whiteSpace=wrap;html=1;" vertex="1" parent="1">
          <mxGeometry x="940" y="920" width="120" height="40" as="geometry" />
        </mxCell>
        <mxCell id="t3CgLz-BEE2Kia9nm0PY-61" value="да" style="text;html=1;align=center;verticalAlign=middle;resizable=0;points=[];autosize=1;strokeColor=none;fillColor=none;" vertex="1" parent="1">
          <mxGeometry x="996" y="890" width="40" height="30" as="geometry" />
        </mxCell>
        <mxCell id="t3CgLz-BEE2Kia9nm0PY-62" value="i++" style="rounded=0;whiteSpace=wrap;html=1;" vertex="1" parent="1">
          <mxGeometry x="940.25" y="1040" width="120" height="30" as="geometry" />
        </mxCell>
        <mxCell id="t3CgLz-BEE2Kia9nm0PY-63" value="нет" style="text;html=1;align=center;verticalAlign=middle;resizable=0;points=[];autosize=1;strokeColor=none;fillColor=none;" vertex="1" parent="1">
          <mxGeometry x="1076" y="880" width="40" height="30" as="geometry" />
        </mxCell>
        <mxCell id="t3CgLz-BEE2Kia9nm0PY-64" value="да" style="text;html=1;align=center;verticalAlign=middle;resizable=0;points=[];autosize=1;strokeColor=none;fillColor=none;fontColor=#000000;" vertex="1" parent="1">
          <mxGeometry x="996" y="760" width="40" height="30" as="geometry" />
        </mxCell>
        <mxCell id="t3CgLz-BEE2Kia9nm0PY-67" value="" style="edgeStyle=orthogonalEdgeStyle;rounded=0;orthogonalLoop=1;jettySize=auto;html=1;fontColor=#000000;" edge="1" parent="1" source="t3CgLz-BEE2Kia9nm0PY-65" target="t3CgLz-BEE2Kia9nm0PY-62">
          <mxGeometry relative="1" as="geometry" />
        </mxCell>
        <mxCell id="t3CgLz-BEE2Kia9nm0PY-65" value="j++" style="rounded=0;whiteSpace=wrap;html=1;fontColor=#000000;" vertex="1" parent="1">
          <mxGeometry x="940" y="980" width="120" height="30" as="geometry" />
        </mxCell>
        <mxCell id="t3CgLz-BEE2Kia9nm0PY-71" value="" style="edgeStyle=orthogonalEdgeStyle;rounded=0;orthogonalLoop=1;jettySize=auto;html=1;fontColor=#000000;" edge="1" parent="1" source="t3CgLz-BEE2Kia9nm0PY-68">
          <mxGeometry relative="1" as="geometry">
            <mxPoint x="1223.5" y="840" as="targetPoint" />
          </mxGeometry>
        </mxCell>
        <mxCell id="t3CgLz-BEE2Kia9nm0PY-75" value="" style="edgeStyle=orthogonalEdgeStyle;rounded=0;orthogonalLoop=1;jettySize=auto;html=1;fontColor=#000000;" edge="1" parent="1" source="t3CgLz-BEE2Kia9nm0PY-68" target="t3CgLz-BEE2Kia9nm0PY-74">
          <mxGeometry relative="1" as="geometry" />
        </mxCell>
        <mxCell id="t3CgLz-BEE2Kia9nm0PY-68" value="newSize == 0" style="rhombus;whiteSpace=wrap;html=1;" vertex="1" parent="1">
          <mxGeometry x="1147" y="680" width="153" height="80" as="geometry" />
        </mxCell>
        <mxCell id="t3CgLz-BEE2Kia9nm0PY-77" value="" style="edgeStyle=orthogonalEdgeStyle;rounded=0;orthogonalLoop=1;jettySize=auto;html=1;fontColor=#000000;" edge="1" parent="1" source="t3CgLz-BEE2Kia9nm0PY-72" target="t3CgLz-BEE2Kia9nm0PY-76">
          <mxGeometry relative="1" as="geometry" />
        </mxCell>
        <mxCell id="t3CgLz-BEE2Kia9nm0PY-72" value="В вашем массиве нет элементов длиной 3 и менее символов" style="shape=document;whiteSpace=wrap;html=1;boundedLbl=1;fontColor=#000000;" vertex="1" parent="1">
          <mxGeometry x="1163.5" y="840" width="120" height="80" as="geometry" />
        </mxCell>
        <mxCell id="t3CgLz-BEE2Kia9nm0PY-73" value="да" style="text;html=1;align=center;verticalAlign=middle;resizable=0;points=[];autosize=1;strokeColor=none;fillColor=none;fontColor=#000000;" vertex="1" parent="1">
          <mxGeometry x="1220" y="795" width="40" height="30" as="geometry" />
        </mxCell>
        <mxCell id="t3CgLz-BEE2Kia9nm0PY-78" value="" style="edgeStyle=orthogonalEdgeStyle;rounded=0;orthogonalLoop=1;jettySize=auto;html=1;fontColor=#000000;" edge="1" parent="1" source="t3CgLz-BEE2Kia9nm0PY-74" target="t3CgLz-BEE2Kia9nm0PY-76">
          <mxGeometry relative="1" as="geometry" />
        </mxCell>
        <mxCell id="t3CgLz-BEE2Kia9nm0PY-74" value="Массив, состоящий из элементов 3 и менее символов: text2" style="shape=document;whiteSpace=wrap;html=1;boundedLbl=1;" vertex="1" parent="1">
          <mxGeometry x="1370" y="680" width="120" height="80" as="geometry" />
        </mxCell>
        <mxCell id="t3CgLz-BEE2Kia9nm0PY-76" value="Конец" style="ellipse;whiteSpace=wrap;html=1;fontColor=#000000;" vertex="1" parent="1">
          <mxGeometry x="1370" y="840" width="120" height="80" as="geometry" />
        </mxCell>
        <mxCell id="t3CgLz-BEE2Kia9nm0PY-79" value="нет" style="text;html=1;align=center;verticalAlign=middle;resizable=0;points=[];autosize=1;strokeColor=none;fillColor=none;fontColor=#000000;" vertex="1" parent="1">
          <mxGeometry x="1290" y="685" width="40" height="30" as="geometry" />
        </mxCell>
        <mxCell id="t3CgLz-BEE2Kia9nm0PY-80" value="нет" style="text;html=1;align=center;verticalAlign=middle;resizable=0;points=[];autosize=1;strokeColor=none;fillColor=none;fontColor=#000000;" vertex="1" parent="1">
          <mxGeometry x="1060" y="685" width="40" height="30" as="geometry" />
        </mxCell>
        <mxCell id="t3CgLz-BEE2Kia9nm0PY-81" value="text[i]" style="shape=parallelogram;perimeter=parallelogramPerimeter;whiteSpace=wrap;html=1;fixedSize=1;fontColor=#000000;" vertex="1" parent="1">
          <mxGeometry x="350" y="440" width="120" height="60" as="geometry" />
        </mxCell>
      </root>
    </mxGraphModel>
  </diagram>
</mxfile>
